<svg id="ninja-bomb" enable-background="new 0 0 300 300" height="512" viewBox="0 0 300 300" width="512" xmlns="http://www.w3.org/2000/svg"><path d="m174 113.674v-11.674h-48v11.674c-32.455 10.195-56 40.506-56 76.326 0 44.183 35.817 80 80 80s80-35.817 80-80c0-35.82-23.545-66.131-56-76.326z" fill="#816982"/><path d="m150 278c-48.523 0-88-39.477-88-88 0-36.65 22.269-68.891 56-81.993v-6.007c0-4.418 3.582-8 8-8h48c4.418 0 8 3.582 8 8v6.007c33.731 13.103 56 45.343 56 81.993 0 48.523-39.477 88-88 88zm-16-168v3.674c0 3.495-2.269 6.585-5.603 7.632-30.144 9.469-50.397 37.076-50.397 68.694 0 39.701 32.299 72 72 72s72-32.299 72-72c0-31.618-20.253-59.225-50.397-68.694-3.334-1.047-5.603-4.137-5.603-7.632v-3.674z" fill="#5c128d"/><path d="m150 110c-2.048 0-4.095-.781-5.657-2.343-1.35-1.351-13.116-13.627-10.649-28.829 1.596-9.835 8.57-17.904 20.729-23.983 3.951-1.976 8.758-.374 10.733 3.577 1.976 3.952.374 8.758-3.577 10.733-7.298 3.649-11.366 7.766-12.092 12.236-1.173 7.23 6.097 14.878 6.171 14.951 3.124 3.125 3.124 8.189 0 11.314-1.563 1.563-3.61 2.344-5.658 2.344z" fill="#5c128d"/><g fill="#e86436"><path d="m150 46c-4.418 0-8-3.582-8-8v-8c0-4.418 3.582-8 8-8s8 3.582 8 8v8c0 4.418-3.582 8-8 8z"/><path d="m126 54c-2.048 0-4.095-.781-5.657-2.343l-8-8c-3.124-3.125-3.124-8.189 0-11.314 3.125-3.123 8.189-3.123 11.314 0l8 8c3.124 3.125 3.124 8.189 0 11.314-1.562 1.562-3.609 2.343-5.657 2.343z"/><path d="m118 78h-8c-4.418 0-8-3.582-8-8s3.582-8 8-8h8c4.418 0 8 3.582 8 8s-3.582 8-8 8z"/><path d="m174 54c-2.048 0-4.095-.781-5.657-2.343-3.124-3.125-3.124-8.189 0-11.314l8-8c3.125-3.123 8.189-3.123 11.314 0 3.124 3.125 3.124 8.189 0 11.314l-8 8c-1.562 1.562-3.609 2.343-5.657 2.343z"/><path d="m190 78h-8c-4.418 0-8-3.582-8-8s3.582-8 8-8h8c4.418 0 8 3.582 8 8s-3.582 8-8 8z"/></g><path d="m130.862 250.647c-.907 0-1.83-.155-2.733-.483-16.663-6.06-30.185-18.908-37.097-35.25-1.721-4.069.183-8.763 4.252-10.484 4.068-1.719 8.763.183 10.484 4.252 5.186 12.261 15.329 21.9 27.829 26.445 4.152 1.51 6.294 6.101 4.784 10.253-1.181 3.249-4.25 5.267-7.519 5.267z" fill="#fff"/></svg>